<svg xmlns="http://www.w3.org/2000/svg" xmlns:xlink="http://www.w3.org/1999/xlink" width="161" zoomAndPan="magnify" viewBox="0 0 120.75 32.999998" height="44" preserveAspectRatio="xMidYMid meet" version="1.0"><defs><clipPath id="b029b6eae8"><path d="M 0 0.0351562 L 120.5 0.0351562 L 120.5 32.964844 L 0 32.964844 Z M 0 0.0351562 " clip-rule="nonzero"/></clipPath><clipPath id="4448354487"><path d="M 0.445312 0.0625 L 120.304688 0.0625 L 120.304688 32.964844 L 0.445312 32.964844 Z M 0.445312 0.0625 " clip-rule="nonzero"/></clipPath><clipPath id="2a512247ac"><path d="M 3.816406 3.410156 L 23.292969 3.410156 L 23.292969 30.164062 L 3.816406 30.164062 Z M 3.816406 3.410156 " clip-rule="nonzero"/></clipPath></defs><g clip-path="url(#b029b6eae8)"><path fill="#ffffff" d="M 0 0.0351562 L 120.75 0.0351562 L 120.75 40.535156 L 0 40.535156 Z M 0 0.0351562 " fill-opacity="1" fill-rule="nonzero"/><path fill="#ffffff" d="M 0 0.0351562 L 120.75 0.0351562 L 120.75 33.035156 L 0 33.035156 Z M 0 0.0351562 " fill-opacity="1" fill-rule="nonzero"/><path fill="#000000" d="M 0 0.0351562 L 120.75 0.0351562 L 120.75 33.035156 L 0 33.035156 Z M 0 0.0351562 " fill-opacity="1" fill-rule="nonzero"/></g><g clip-path="url(#4448354487)"><path fill="#ffffff" d="M 0.445312 0.0625 L 120.304688 0.0625 L 120.304688 40.195312 L 0.445312 40.195312 Z M 0.445312 0.0625 " fill-opacity="1" fill-rule="nonzero"/><path fill="#ffffff" d="M 0.445312 0.0625 L 120.304688 0.0625 L 120.304688 33.503906 L 0.445312 33.503906 Z M 0.445312 0.0625 " fill-opacity="1" fill-rule="nonzero"/><path fill="#000000" d="M 0.445312 0.0625 L 120.304688 0.0625 L 120.304688 33.503906 L 0.445312 33.503906 Z M 0.445312 0.0625 " fill-opacity="1" fill-rule="nonzero"/></g><g clip-path="url(#2a512247ac)"><path fill="#ffffff" d="M 8.210938 24.589844 C 8.296875 24.617188 8.195312 24.433594 8.207031 24.351562 C 8.738281 24.070312 8.679688 23.195312 9.308594 23.011719 C 9.328125 22.765625 9.476562 22.65625 9.539062 22.457031 C 9.851562 22.519531 9.996094 22.402344 10.246094 22.296875 C 10.296875 22.277344 10.496094 22.265625 10.5625 22.21875 C 10.824219 22.042969 10.84375 21.816406 11.035156 21.589844 C 10.871094 21.296875 11.085938 21.121094 11.035156 20.722656 C 11.382812 20.761719 11.296875 20.359375 11.660156 20.40625 C 11.648438 20.207031 11.78125 20.15625 11.894531 20.089844 C 11.878906 19.890625 11.980469 19.738281 12.050781 19.539062 C 12.089844 19.425781 12.171875 19.285156 12.207031 19.144531 C 12.246094 18.980469 12.304688 18.886719 12.367188 18.75 C 12.421875 18.632812 12.425781 18.453125 12.523438 18.273438 C 12.546875 18.230469 12.664062 18.15625 12.679688 18.117188 C 12.699219 18.074219 12.667969 18.003906 12.679688 17.960938 C 12.707031 17.84375 12.875 17.414062 12.679688 17.09375 C 12.171875 17.292969 11.894531 16.917969 11.5 16.777344 C 11.429688 16.691406 11.503906 16.519531 11.421875 16.382812 C 11.386719 16.320312 11.222656 16.285156 11.191406 16.222656 C 11.140625 16.125 11.09375 15.785156 11.035156 15.671875 C 11.011719 15.628906 10.960938 15.679688 10.953125 15.589844 C 10.941406 15.492188 10.992188 15.351562 11.035156 15.195312 C 11.113281 14.867188 11.140625 14.65625 11.421875 14.488281 C 11.425781 14.300781 11.289062 14.257812 11.34375 14.015625 C 11.492188 13.980469 11.542969 13.84375 11.738281 13.855469 C 11.757812 13.625 11.558594 13.613281 11.578125 13.382812 C 11.894531 13.25 11.902344 12.816406 12.445312 12.90625 C 12.71875 12.890625 12.304688 12.5625 12.523438 12.597656 C 12.464844 12.300781 12.820312 12.421875 12.835938 12.199219 C 12.890625 11.984375 12.679688 12.042969 12.679688 11.882812 C 12.621094 11.667969 12.832031 11.726562 12.835938 11.566406 C 12.804688 11.441406 12.691406 11.375 12.679688 11.25 C 12.667969 11.125 12.738281 11.113281 12.757812 11.015625 C 12.800781 10.761719 12.742188 10.542969 12.835938 10.226562 C 12.839844 10.203125 12.914062 10.222656 12.917969 10.148438 C 12.917969 10.089844 12.984375 10.066406 12.996094 9.992188 C 13.027344 9.769531 12.859375 9.589844 12.996094 9.4375 C 12.671875 8.96875 12.261719 8.589844 11.972656 8.097656 C 11.550781 7.996094 11.21875 7.804688 10.640625 7.859375 C 10.503906 7.859375 10.480469 7.765625 10.40625 7.703125 C 10.347656 7.65625 10.273438 7.621094 10.246094 7.542969 C 10.039062 7.523438 9.90625 7.570312 9.695312 7.542969 C 9.539062 7.523438 9.371094 7.40625 9.230469 7.386719 C 8.867188 7.335938 8.550781 7.425781 8.207031 7.308594 C 8.179688 7.296875 8.207031 7.230469 8.128906 7.226562 C 8.109375 7.226562 8.070312 7.238281 8.050781 7.226562 C 7.980469 7.199219 7.753906 7.140625 7.578125 7.070312 C 7.546875 7.058594 7.582031 6.996094 7.5 6.992188 C 7.480469 6.992188 7.441406 7 7.421875 6.992188 C 7.375 6.972656 7.359375 6.917969 7.347656 6.914062 C 7.210938 6.863281 7.0625 6.863281 6.953125 6.832031 C 6.933594 6.828125 6.945312 6.757812 6.875 6.753906 C 6.695312 6.746094 6.640625 6.738281 6.480469 6.675781 C 6.449219 6.660156 6.171875 6.601562 6.089844 6.515625 C 5.804688 6.707031 5.773438 7.148438 5.539062 7.386719 C 5.351562 7.355469 5.371094 7.53125 5.148438 7.464844 C 5.011719 7.539062 5.003906 7.742188 4.914062 7.859375 C 4.726562 7.828125 4.742188 8.003906 4.519531 7.941406 C 4.277344 8.035156 4.207031 8.308594 3.8125 8.257812 C 3.863281 8.1875 3.832031 7.992188 3.890625 7.941406 C 4.023438 7.832031 3.929688 7.644531 4.046875 7.464844 C 4.109375 7.378906 4.15625 7.320312 4.207031 7.226562 C 4.273438 7.109375 4.316406 6.898438 4.363281 6.832031 C 4.414062 6.765625 4.578125 6.695312 4.675781 6.597656 C 4.773438 6.503906 4.84375 6.328125 4.914062 6.28125 C 5.007812 6.214844 5.113281 6.246094 5.226562 6.199219 C 5.257812 6.1875 5.21875 6.125 5.304688 6.121094 C 5.515625 6.109375 5.695312 5.957031 5.929688 5.808594 C 6.425781 5.925781 7.058594 5.925781 7.65625 5.96875 C 7.78125 5.976562 7.789062 6.035156 7.894531 6.046875 C 8.335938 6.101562 8.785156 5.980469 9.152344 6.046875 C 9.339844 6.082031 9.542969 6.203125 9.695312 6.28125 C 9.972656 6.332031 10.125 6.117188 10.484375 6.199219 C 10.660156 6.242188 10.675781 6.265625 11.035156 6.199219 C 11.25 6.160156 11.390625 6.003906 11.660156 6.046875 C 11.964844 6.058594 12.003906 6.210938 12.367188 6.28125 C 12.722656 6.105469 13.429688 5.652344 13.855469 6.046875 C 13.957031 5.964844 14.144531 5.96875 14.25 5.886719 C 14.375 5.871094 14.289062 5.679688 14.328125 5.574219 C 14.339844 5.539062 14.480469 5.433594 14.484375 5.414062 C 14.511719 5.265625 14.402344 5.175781 14.40625 5.019531 C 14.40625 5.035156 14.480469 4.984375 14.484375 4.941406 C 14.492188 4.738281 14.46875 4.554688 14.5625 4.386719 C 14.585938 4.34375 14.636719 4.398438 14.640625 4.308594 C 14.652344 4.101562 14.789062 4.167969 14.800781 3.992188 C 14.808594 3.832031 14.984375 3.960938 15.113281 3.835938 C 15.164062 3.785156 15.128906 3.640625 15.1875 3.601562 C 15.261719 3.582031 15.351562 3.621094 15.425781 3.601562 C 15.507812 3.574219 15.617188 3.558594 15.738281 3.519531 C 15.773438 3.511719 15.828125 3.441406 15.816406 3.441406 C 15.945312 3.429688 15.949219 3.519531 16.054688 3.519531 C 16.136719 3.523438 16.207031 3.441406 16.210938 3.441406 C 16.273438 3.449219 16.339844 3.511719 16.445312 3.519531 C 16.617188 3.539062 16.6875 3.527344 16.839844 3.601562 C 16.875 3.617188 16.832031 3.675781 16.917969 3.679688 C 17.011719 3.683594 17.050781 3.800781 17.148438 3.914062 C 17.195312 3.964844 17.210938 4.070312 17.308594 4.070312 C 17.460938 4.070312 17.316406 4.3125 17.386719 4.386719 C 17.394531 4.394531 17.464844 4.378906 17.464844 4.386719 C 17.484375 4.457031 17.4375 4.558594 17.464844 4.625 C 17.480469 4.660156 17.535156 4.621094 17.542969 4.703125 C 17.558594 4.828125 17.480469 4.882812 17.464844 5.019531 C 17.4375 5.285156 17.421875 5.574219 17.386719 5.886719 C 17.445312 6.171875 17.960938 5.996094 18.25 6.046875 C 18.402344 5.984375 18.425781 6.179688 18.484375 6.199219 C 18.582031 6.234375 18.703125 6.171875 18.800781 6.199219 C 18.832031 6.210938 18.9375 6.355469 18.957031 6.359375 C 19.082031 6.382812 19.089844 6.285156 19.191406 6.28125 C 18.960938 6.015625 18.5625 5.917969 18.40625 5.574219 C 18.261719 5.5625 18.144531 5.519531 18.09375 5.414062 C 18.019531 5.328125 17.800781 5.390625 17.855469 5.175781 C 18.0625 5.050781 18.507812 5.222656 18.644531 5.414062 C 18.699219 5.410156 18.691406 5.273438 18.644531 5.175781 C 18.621094 5.128906 18.503906 5.058594 18.484375 5.019531 C 18.410156 4.859375 18.367188 4.6875 18.328125 4.542969 C 18.265625 4.476562 18.113281 4.496094 18.09375 4.386719 C 18.117188 4.121094 18.355469 4.070312 18.566406 3.992188 C 18.503906 4.289062 18.863281 4.164062 18.878906 4.386719 C 19.0625 4.386719 19.105469 4.523438 19.347656 4.464844 C 19.535156 4.699219 19.808594 4.84375 20.054688 5.019531 C 20.148438 5.289062 20.222656 5.539062 20.367188 5.730469 C 20.871094 6.402344 21.957031 6.5 22.722656 6.914062 C 22.785156 7.058594 22.851562 7.203125 22.878906 7.386719 C 22.9375 7.617188 23.25 7.589844 23.191406 7.941406 C 23.292969 8.179688 23.039062 8.078125 22.960938 8.175781 C 22.945312 8.1875 22.96875 8.25 22.960938 8.257812 C 22.925781 8.273438 22.820312 8.230469 22.800781 8.257812 C 22.792969 8.265625 22.808594 8.332031 22.800781 8.335938 C 22.769531 8.347656 22.660156 8.3125 22.644531 8.335938 C 22.558594 8.4375 22.484375 8.367188 22.332031 8.410156 C 22.132812 8.46875 21.960938 8.628906 21.542969 8.570312 C 21.425781 8.550781 21.296875 8.421875 21.152344 8.410156 C 21.015625 8.398438 20.980469 8.484375 20.839844 8.488281 C 20.664062 8.496094 20.597656 8.375 20.289062 8.410156 C 20.148438 8.425781 19.960938 8.480469 19.820312 8.570312 C 19.703125 8.640625 19.390625 8.621094 19.191406 8.726562 C 19.042969 8.734375 19.136719 8.988281 18.957031 8.964844 C 18.945312 9.332031 18.972656 9.464844 18.878906 9.753906 C 18.867188 9.78125 18.804688 9.753906 18.800781 9.832031 C 18.792969 9.945312 18.714844 10.355469 18.644531 10.464844 C 18.53125 10.628906 18.476562 10.859375 18.484375 11.171875 C 18.40625 11.175781 18.421875 11.269531 18.40625 11.332031 C 18.144531 11.40625 18.015625 11.621094 17.855469 11.804688 C 18.0625 12.003906 17.863281 12.253906 17.777344 12.515625 C 17.726562 12.675781 17.742188 12.867188 17.699219 12.988281 C 17.691406 13.015625 17.625 12.988281 17.621094 13.066406 C 17.617188 13.132812 17.511719 13.191406 17.542969 13.304688 C 17.300781 13.425781 17.128906 13.625 16.917969 13.777344 C 16.710938 14.511719 17.363281 14.78125 17.226562 15.671875 C 17.359375 15.882812 17.535156 16.046875 17.777344 16.144531 C 17.855469 16.523438 18.183594 16.675781 18.171875 17.015625 C 18.171875 17 18.097656 17.046875 18.09375 17.09375 C 18.085938 17.25 18.054688 17.328125 17.9375 17.484375 C 17.792969 17.679688 17.480469 17.949219 17.308594 18.195312 C 16.382812 18.292969 16.21875 19.152344 15.34375 19.304688 C 15.207031 19.640625 15.066406 20.019531 14.878906 20.328125 C 14.851562 20.371094 14.804688 20.316406 14.800781 20.40625 C 14.792969 20.503906 14.644531 20.597656 14.5625 20.722656 C 14.503906 20.808594 14.457031 20.863281 14.40625 20.957031 C 14.148438 21.4375 13.605469 21.898438 13.074219 22.21875 C 13.144531 22.34375 13 22.429688 12.996094 22.457031 C 12.890625 23.039062 13.070312 23.710938 13.226562 24.117188 C 13.148438 24.175781 13.074219 24.214844 12.996094 24.269531 C 12.816406 24.402344 12.828125 24.441406 12.601562 24.269531 C 12.539062 24.222656 12.453125 24.214844 12.445312 24.117188 C 12.292969 24.140625 12.1875 24.199219 12.050781 24.117188 C 12.046875 24.113281 12.125 24.007812 12.128906 23.96875 C 12.121094 23.976562 12.058594 23.890625 12.050781 23.878906 C 11.996094 23.828125 11.851562 23.824219 11.894531 23.878906 C 11.886719 23.867188 11.738281 23.804688 11.738281 23.800781 C 11.722656 23.703125 11.910156 23.640625 11.738281 23.484375 C 11.3125 23.53125 11.171875 23.859375 11.113281 24.269531 C 10.917969 24.277344 10.894531 24.46875 10.796875 24.585938 C 10.722656 24.675781 10.464844 24.746094 10.5625 24.980469 C 10.507812 25.058594 10.242188 24.96875 10.167969 25.0625 C 10.164062 25.066406 9.871094 25.320312 9.855469 25.296875 C 9.671875 25.070312 9.960938 25.558594 9.695312 25.296875 C 9.582031 25.332031 9.703125 25.367188 9.695312 25.457031 C 9.4375 25.484375 9.359375 25.691406 9.230469 25.851562 C 9.097656 25.875 9.089844 25.777344 8.992188 25.773438 C 9.078125 25.875 9.035156 25.875 8.992188 25.929688 C 8.964844 25.960938 8.867188 26.0625 8.835938 26.089844 C 8.773438 26.140625 8.671875 26.113281 8.601562 26.167969 C 8.601562 26.125 8.539062 26.078125 8.523438 26.167969 C 8.289062 26.277344 8.203125 26.53125 7.972656 26.636719 C 7.941406 26.726562 7.878906 26.828125 7.972656 26.71875 C 8.199219 26.609375 8.285156 26.367188 8.503906 26.257812 C 8.339844 26.425781 8.121094 26.726562 7.972656 26.875 C 7.84375 26.898438 7.835938 26.800781 7.734375 26.796875 C 7.824219 26.914062 7.824219 26.996094 7.734375 27.113281 C 7.589844 27.171875 7.683594 27.347656 7.5 27.191406 C 7.59375 27.429688 7.691406 27.664062 7.578125 27.902344 C 7.382812 28.019531 7.273438 28.09375 7.03125 27.980469 C 6.765625 28.242188 6.84375 28.84375 6.558594 29.085938 C 6.582031 29.453125 6.496094 29.707031 6.402344 29.953125 C 6.3125 29.941406 6.261719 29.972656 6.246094 30.035156 C 5.847656 30.140625 5.808594 29.476562 5.539062 29.71875 C 5.304688 29.664062 5.617188 29.546875 5.539062 29.402344 C 5.523438 29.097656 5.335938 29.398438 5.226562 29.242188 C 5.183594 29.183594 5.382812 29.097656 5.382812 29.085938 C 5.398438 28.976562 5.273438 28.898438 5.070312 28.925781 C 5.152344 28.90625 5.09375 28.742188 5.148438 28.695312 C 5.242188 28.597656 5.105469 28.632812 5.148438 28.457031 C 5.152344 28.4375 5.222656 28.449219 5.226562 28.378906 C 5.226562 28.355469 5.21875 28.316406 5.226562 28.296875 C 5.238281 28.265625 5.296875 27.984375 5.382812 27.902344 C 5.398438 27.730469 5.316406 27.652344 5.148438 27.667969 C 5.175781 27.5625 5.285156 27.542969 5.304688 27.429688 C 5.269531 27.332031 5.203125 27.265625 5.070312 27.269531 C 5.09375 26.992188 5.285156 27.078125 5.148438 26.796875 C 5.453125 26.574219 5.804688 26.410156 6.167969 26.246094 C 6.347656 26.226562 6.460938 26.265625 6.480469 26.40625 C 6.597656 26.402344 6.488281 26.308594 6.480469 26.324219 C 6.53125 26.210938 6.742188 26.214844 6.796875 26.011719 C 6.976562 25.984375 7.09375 26.023438 7.1875 26.089844 C 7.039062 25.9375 7.296875 25.871094 7.449219 25.742188 C 7.441406 25.753906 7.433594 25.761719 7.421875 25.773438 C 7.378906 25.824219 7.246094 25.9375 7.34375 26.011719 C 7.355469 25.867188 7.484375 25.882812 7.578125 25.773438 C 7.816406 25.496094 7.667969 25.539062 7.507812 25.6875 C 7.554688 25.632812 7.652344 25.527344 7.65625 25.457031 C 7.664062 25.355469 7.789062 25.355469 7.8125 25.296875 C 7.890625 25.132812 7.8125 25.175781 7.972656 25.21875 C 7.761719 24.753906 8.183594 25.28125 7.972656 24.824219 C 8.015625 24.808594 8.078125 24.941406 8.128906 24.902344 C 8.136719 24.898438 8.003906 24.726562 8.050781 24.667969 C 8.0625 24.652344 8.191406 24.777344 8.207031 24.746094 C 8.21875 24.71875 8.109375 24.59375 8.128906 24.507812 C 8.144531 24.445312 8.230469 24.589844 8.210938 24.589844 Z M 9.460938 25.535156 C 9.46875 25.488281 9.472656 25.441406 9.539062 25.457031 C 9.46875 25.242188 9.367188 25.636719 9.230469 25.613281 C 9.058594 25.941406 9.332031 25.585938 9.460938 25.535156 Z M 7.269531 23.25 C 7.371094 23.175781 7.300781 23.207031 7.269531 23.25 C 7.183594 23.308594 7.167969 23.324219 7.109375 23.40625 C 7.011719 23.480469 7.082031 23.449219 7.109375 23.40625 C 7.191406 23.347656 7.207031 23.332031 7.269531 23.25 " fill-opacity="1" fill-rule="nonzero"/></g><path fill="#ffffff" d="M 9.539062 25.457031 C 9.472656 25.441406 9.46875 25.488281 9.460938 25.535156 C 9.332031 25.585938 9.058594 25.941406 9.230469 25.613281 C 9.367188 25.636719 9.46875 25.242188 9.539062 25.457031 " fill-opacity="1" fill-rule="nonzero"/><path fill="#ffffff" d="M 8.601562 26.167969 C 8.539062 26.15625 8.527344 26.195312 8.523438 26.238281 C 8.519531 26.242188 8.511719 26.25 8.507812 26.257812 C 8.285156 26.367188 8.199219 26.609375 7.972656 26.71875 C 7.878906 26.828125 7.941406 26.726562 7.972656 26.636719 C 8.203125 26.53125 8.289062 26.277344 8.523438 26.167969 C 8.539062 26.078125 8.601562 26.125 8.601562 26.167969 " fill-opacity="1" fill-rule="nonzero"/><path fill="#ffffff" d="M 8.523438 26.238281 C 8.527344 26.195312 8.539062 26.15625 8.601562 26.167969 C 8.578125 26.1875 8.550781 26.210938 8.523438 26.238281 " fill-opacity="1" fill-rule="nonzero"/><path fill="#ffffff" d="M 8.523438 24.195312 C 8.550781 24.152344 8.621094 24.121094 8.523438 24.195312 " fill-opacity="1" fill-rule="nonzero"/><path fill="#ffffff" d="M 8.523438 26.238281 C 8.523438 26.242188 8.523438 26.242188 8.523438 26.246094 C 8.519531 26.25 8.511719 26.253906 8.507812 26.257812 C 8.511719 26.25 8.519531 26.242188 8.523438 26.238281 " fill-opacity="1" fill-rule="nonzero"/><path fill="#ffffff" d="M 8.523438 24.195312 C 8.460938 24.273438 8.445312 24.289062 8.363281 24.351562 C 8.421875 24.265625 8.4375 24.253906 8.523438 24.195312 " fill-opacity="1" fill-rule="nonzero"/><path fill="#ffffff" d="M 8.363281 24.351562 C 8.332031 24.390625 8.261719 24.421875 8.363281 24.351562 " fill-opacity="1" fill-rule="nonzero"/><path fill="#ffffff" d="M 7.507812 25.6875 C 7.667969 25.539062 7.816406 25.496094 7.578125 25.773438 C 7.484375 25.882812 7.355469 25.867188 7.347656 26.011719 C 7.246094 25.9375 7.378906 25.824219 7.421875 25.773438 C 7.433594 25.761719 7.441406 25.753906 7.449219 25.742188 C 7.46875 25.730469 7.488281 25.710938 7.5 25.695312 C 7.503906 25.691406 7.503906 25.6875 7.507812 25.6875 " fill-opacity="1" fill-rule="nonzero"/><path fill="#ffffff" d="M 7.507812 25.6875 C 7.503906 25.6875 7.503906 25.691406 7.5 25.695312 C 7.488281 25.710938 7.46875 25.730469 7.449219 25.742188 C 7.46875 25.722656 7.488281 25.703125 7.507812 25.6875 " fill-opacity="1" fill-rule="nonzero"/><path fill="#ffffff" d="M 17.410156 27.464844 C 17.410156 28.503906 16.570312 29.34375 15.539062 29.34375 C 14.507812 29.34375 13.671875 28.503906 13.671875 27.464844 C 13.671875 26.429688 14.507812 25.585938 15.539062 25.585938 C 16.570312 25.585938 17.410156 26.429688 17.410156 27.464844 " fill-opacity="1" fill-rule="nonzero"/><path fill="#ffc1b2" d="M 27.605469 20.332031 L 27.605469 20.539062 L 30.0625 20.539062 L 30.0625 20.332031 L 29.871094 20.332031 C 29.597656 20.316406 29.105469 20.242188 29.105469 19.972656 L 29.105469 14.832031 L 32.640625 14.832031 C 32.792969 14.832031 32.957031 15.1875 32.957031 15.1875 L 33.058594 15.1875 L 33.058594 14.253906 L 32.957031 14.253906 C 32.957031 14.253906 32.792969 14.613281 32.640625 14.613281 L 29.105469 14.613281 L 29.105469 10.269531 L 32.59375 10.269531 C 32.925781 10.269531 33.253906 10.894531 33.28125 10.957031 L 33.40625 10.957031 L 33.40625 10.050781 L 27.605469 10.050781 L 27.605469 10.269531 C 27.605469 10.269531 28.566406 10.269531 28.566406 10.628906 L 28.566406 19.972656 C 28.566406 20.242188 28.074219 20.316406 27.789062 20.332031 Z M 27.605469 20.332031 " fill-opacity="0.302" fill-rule="nonzero"/><path fill="#ffc1b2" d="M 39.363281 20.734375 C 39.917969 20.734375 40.46875 20.613281 40.992188 20.359375 L 40.976562 20.359375 C 41.96875 19.945312 42.804688 19.394531 42.804688 19.394531 L 43.089844 18.234375 L 42.894531 18.148438 C 42.117188 19.617188 40.785156 20.507812 39.363281 20.507812 C 39.257812 20.507812 39.148438 20.507812 39.046875 20.496094 C 37.039062 20.210938 35.4375 17.878906 35.4375 15.339844 C 35.4375 12.664062 37.1875 10.171875 39.363281 10.171875 C 40.695312 10.171875 42.117188 10.882812 42.746094 12.28125 L 42.9375 12.160156 L 42.925781 12.160156 L 42.699219 11.179688 C 42.699219 11.179688 41.96875 10.703125 41.128906 10.332031 L 41.160156 10.359375 C 40.589844 10.082031 39.976562 9.949219 39.363281 9.949219 C 36.890625 9.949219 34.898438 12.371094 34.898438 15.339844 C 34.898438 18.3125 36.890625 20.734375 39.363281 20.734375 Z M 39.363281 20.734375 " fill-opacity="0.302" fill-rule="nonzero"/><path fill="#ffc1b2" d="M 50.574219 20.316406 L 50.574219 20.539062 L 53.027344 20.539062 L 53.027344 20.316406 C 52.507812 20.316406 52.070312 20.226562 52.070312 19.957031 L 52.070312 15.8125 L 54.121094 15.8125 C 54.75 15.8125 55.574219 16.722656 55.773438 17.460938 C 56.113281 18.742188 56.238281 19.675781 57.355469 20.539062 L 58.226562 20.539062 L 58.226562 20.316406 C 57.089844 20.316406 56.609375 18.535156 56.386719 17.597656 C 56.113281 16.5 55.484375 16.140625 54.722656 15.769531 C 56.203125 15.53125 57.34375 14.433594 57.34375 12.871094 C 57.34375 11.105469 55.890625 10.035156 54.109375 10.035156 L 50.574219 10.035156 L 50.574219 10.257812 C 51.097656 10.257812 51.53125 10.34375 51.53125 10.597656 L 51.53125 19.957031 C 51.53125 20.226562 51.097656 20.316406 50.574219 20.316406 Z M 54.109375 15.605469 L 52.070312 15.605469 L 52.070312 10.613281 C 52.070312 10.34375 52.566406 10.269531 52.835938 10.257812 L 54.109375 10.257812 C 55.589844 10.257812 56.800781 11.402344 56.800781 12.871094 C 56.800781 14.359375 55.589844 15.605469 54.109375 15.605469 Z M 54.109375 15.605469 " fill-opacity="0.302" fill-rule="nonzero"/><path fill="#ffc1b2" d="M 65.9375 19.601562 C 65.890625 19.691406 65.46875 20.332031 65.039062 20.332031 L 61.203125 20.332031 L 61.203125 14.816406 L 64.738281 14.816406 C 64.886719 14.816406 65.054688 15.175781 65.054688 15.175781 L 65.15625 15.175781 L 65.15625 14.242188 L 65.054688 14.242188 C 65.054688 14.242188 64.886719 14.597656 64.738281 14.597656 L 61.203125 14.597656 L 61.203125 10.257812 L 64.707031 10.257812 C 65.023438 10.257812 65.367188 10.882812 65.394531 10.941406 L 65.5 10.941406 L 65.5 10.035156 L 59.71875 10.035156 L 59.71875 10.257812 C 59.71875 10.257812 60.667969 10.257812 60.667969 10.613281 L 60.667969 19.972656 C 60.667969 20.242188 60.171875 20.316406 59.898438 20.332031 L 59.71875 20.332031 L 59.71875 20.539062 L 65.605469 20.539062 L 66.1875 19.601562 Z M 65.9375 19.601562 " fill-opacity="0.302" fill-rule="nonzero"/><path fill="#ffc1b2" d="M 67.683594 20.332031 L 67.683594 20.539062 L 69.8125 20.539062 L 69.8125 20.332031 C 69.289062 20.332031 68.855469 20.242188 68.855469 19.972656 L 68.855469 10.554688 L 72.898438 20.464844 L 72.945312 20.464844 L 76.941406 10.480469 L 76.941406 19.972656 C 76.941406 20.242188 76.503906 20.332031 75.980469 20.332031 L 75.980469 20.539062 L 78.4375 20.539062 L 78.4375 20.332031 C 77.917969 20.332031 77.480469 20.242188 77.480469 19.972656 L 77.480469 10.597656 C 77.480469 10.34375 77.917969 10.242188 78.4375 10.242188 L 78.4375 10.035156 L 76.882812 10.035156 L 73.09375 19.527344 L 69.230469 10.035156 L 67.683594 10.035156 L 67.683594 10.242188 C 68.210938 10.242188 68.632812 10.34375 68.644531 10.597656 L 68.644531 19.972656 C 68.644531 20.242188 68.210938 20.332031 67.683594 20.332031 Z M 67.683594 20.332031 " fill-opacity="0.302" fill-rule="nonzero"/><path fill="#ffc1b2" d="M 86.148438 19.601562 C 86.101562 19.691406 85.679688 20.332031 85.25 20.332031 L 81.417969 20.332031 L 81.417969 14.816406 L 84.949219 14.816406 C 85.097656 14.816406 85.265625 15.175781 85.265625 15.175781 L 85.367188 15.175781 L 85.367188 14.242188 L 85.265625 14.242188 C 85.265625 14.242188 85.097656 14.597656 84.949219 14.597656 L 81.417969 14.597656 L 81.417969 10.257812 L 84.917969 10.257812 C 85.234375 10.257812 85.578125 10.882812 85.605469 10.941406 L 85.710938 10.941406 L 85.710938 10.035156 L 79.929688 10.035156 L 79.929688 10.257812 C 79.929688 10.257812 80.878906 10.257812 80.878906 10.613281 L 80.878906 19.972656 C 80.878906 20.242188 80.382812 20.316406 80.113281 20.332031 L 79.929688 20.332031 L 79.929688 20.539062 L 85.820312 20.539062 L 86.402344 19.601562 Z M 86.148438 19.601562 " fill-opacity="0.302" fill-rule="nonzero"/><path fill="#ffc1b2" d="M 87.894531 20.316406 L 87.894531 20.539062 L 90.351562 20.539062 L 90.351562 20.316406 C 89.828125 20.316406 89.394531 20.226562 89.394531 19.957031 L 89.394531 15.8125 L 91.445312 15.8125 C 92.074219 15.8125 92.898438 16.722656 93.09375 17.460938 C 93.4375 18.742188 93.558594 19.675781 94.679688 20.539062 L 95.546875 20.539062 L 95.546875 20.316406 C 94.414062 20.316406 93.933594 18.535156 93.707031 17.597656 C 93.4375 16.5 92.808594 16.140625 92.046875 15.769531 C 93.527344 15.53125 94.667969 14.433594 94.667969 12.871094 C 94.667969 11.105469 93.214844 10.035156 91.433594 10.035156 L 87.894531 10.035156 L 87.894531 10.257812 C 88.421875 10.257812 88.855469 10.34375 88.855469 10.597656 L 88.855469 19.957031 C 88.855469 20.226562 88.421875 20.316406 87.894531 20.316406 Z M 91.433594 15.605469 L 89.394531 15.605469 L 89.394531 10.613281 C 89.394531 10.34375 89.886719 10.269531 90.160156 10.257812 L 91.433594 10.257812 C 92.914062 10.257812 94.125 11.402344 94.125 12.871094 C 94.125 14.359375 92.914062 15.605469 91.433594 15.605469 Z M 91.433594 15.605469 " fill-opacity="0.302" fill-rule="nonzero"/><path fill="#ffc1b2" d="M 97.042969 20.332031 L 97.042969 20.539062 L 99.5 20.539062 L 99.5 20.332031 C 99.019531 20.332031 98.257812 20.285156 98.390625 19.972656 L 98.378906 19.972656 L 99.9375 15.992188 L 104.007812 15.992188 L 105.550781 19.972656 C 105.671875 20.269531 105.160156 20.332031 104.683594 20.332031 L 104.683594 20.539062 L 107.136719 20.539062 L 107.136719 20.332031 C 106.703125 20.332031 106.300781 20.269531 106.148438 20.019531 L 102.253906 10.050781 L 102.253906 10.035156 L 102.03125 10.035156 L 98.140625 19.988281 C 97.988281 20.300781 97.464844 20.332031 97.042969 20.332031 Z M 103.917969 15.785156 L 100.027344 15.785156 L 101.972656 10.792969 Z M 103.917969 15.785156 " fill-opacity="0.302" fill-rule="nonzero"/><path fill="#ffc1b2" d="M 110.117188 20.183594 C 111.160156 20.808594 112.464844 20.957031 113.617188 20.390625 C 114.5625 19.914062 115.191406 19.054688 115.191406 18.058594 C 115.191406 17.058594 114.578125 16.15625 113.527344 15.664062 L 110.9375 14.480469 C 110.207031 14.105469 109.589844 13.390625 109.589844 12.617188 L 109.589844 12.515625 C 109.636719 11.296875 110.984375 10.269531 112.105469 10.269531 C 113.167969 10.316406 114.15625 10.957031 114.800781 12.011719 L 114.980469 11.90625 L 114.800781 11.148438 C 114.785156 11.132812 114.304688 10.820312 113.722656 10.554688 C 113.648438 10.523438 113.574219 10.480469 113.5 10.433594 C 113.0625 10.199219 112.585938 10.023438 112.105469 10.023438 C 110.503906 10.023438 109.273438 11 109.214844 12.484375 L 109.214844 12.632812 C 109.214844 13.601562 109.785156 14.492188 110.683594 14.949219 L 113.246094 16.125 C 114.097656 16.527344 114.773438 17.238281 114.773438 18.058594 C 114.773438 18.90625 114.171875 19.839844 113.277344 20.269531 C 112.390625 20.671875 111.28125 20.570312 110.414062 20.03125 C 109.769531 19.632812 109.230469 19.011719 108.828125 18.25 C 108.828125 18.234375 108.8125 18.234375 108.8125 18.234375 L 108.628906 18.339844 L 108.628906 18.355469 L 108.902344 19.484375 C 108.917969 19.496094 109.425781 19.824219 110.117188 20.183594 Z M 110.117188 20.183594 " fill-opacity="0.302" fill-rule="nonzero"/><path fill="#ffc1b2" d="M 28.003906 20.5 L 28.003906 20.707031 L 30.460938 20.707031 L 30.460938 20.5 L 30.265625 20.5 C 29.996094 20.484375 29.5 20.410156 29.5 20.140625 L 29.5 15 L 33.039062 15 C 33.1875 15 33.351562 15.355469 33.351562 15.355469 L 33.453125 15.355469 L 33.453125 14.417969 L 33.351562 14.417969 C 33.351562 14.417969 33.1875 14.777344 33.039062 14.777344 L 29.5 14.777344 L 29.5 10.4375 L 32.992188 10.4375 C 33.320312 10.4375 33.652344 11.0625 33.679688 11.125 L 33.800781 11.125 L 33.800781 10.214844 L 28.003906 10.214844 L 28.003906 10.4375 C 28.003906 10.4375 28.960938 10.4375 28.960938 10.796875 L 28.960938 20.140625 C 28.960938 20.410156 28.472656 20.484375 28.183594 20.5 Z M 28.003906 20.5 " fill-opacity="0.502" fill-rule="nonzero"/><path fill="#ffc1b2" d="M 39.757812 20.902344 C 40.3125 20.902344 40.867188 20.78125 41.390625 20.527344 L 41.375 20.527344 C 42.363281 20.113281 43.203125 19.5625 43.203125 19.5625 L 43.484375 18.402344 L 43.292969 18.316406 C 42.515625 19.785156 41.179688 20.675781 39.757812 20.675781 C 39.652344 20.675781 39.546875 20.675781 39.445312 20.664062 C 37.4375 20.378906 35.835938 18.046875 35.835938 15.507812 C 35.835938 12.832031 37.585938 10.335938 39.757812 10.335938 C 41.089844 10.335938 42.515625 11.050781 43.144531 12.445312 L 43.335938 12.324219 L 43.324219 12.324219 L 43.097656 11.347656 C 43.097656 11.347656 42.363281 10.871094 41.523438 10.5 L 41.554688 10.527344 C 40.984375 10.246094 40.371094 10.113281 39.757812 10.113281 C 37.285156 10.113281 35.292969 12.535156 35.292969 15.507812 C 35.292969 18.480469 37.285156 20.902344 39.757812 20.902344 Z M 39.757812 20.902344 " fill-opacity="0.502" fill-rule="nonzero"/><path fill="#ffc1b2" d="M 50.96875 20.484375 L 50.96875 20.707031 L 53.425781 20.707031 L 53.425781 20.484375 C 52.902344 20.484375 52.464844 20.394531 52.464844 20.125 L 52.464844 15.980469 L 54.519531 15.980469 C 55.148438 15.980469 55.972656 16.886719 56.167969 17.628906 C 56.511719 18.90625 56.632812 19.84375 57.753906 20.707031 L 58.621094 20.707031 L 58.621094 20.484375 C 57.484375 20.484375 57.007812 18.703125 56.78125 17.765625 C 56.511719 16.664062 55.882812 16.308594 55.121094 15.9375 C 56.601562 15.699219 57.742188 14.597656 57.742188 13.039062 C 57.742188 11.273438 56.285156 10.199219 54.507812 10.199219 L 50.96875 10.199219 L 50.96875 10.425781 C 51.496094 10.425781 51.929688 10.511719 51.929688 10.765625 L 51.929688 20.125 C 51.929688 20.394531 51.496094 20.484375 50.96875 20.484375 Z M 54.507812 15.773438 L 52.464844 15.773438 L 52.464844 10.78125 C 52.464844 10.511719 52.960938 10.4375 53.234375 10.425781 L 54.507812 10.425781 C 55.988281 10.425781 57.199219 11.570312 57.199219 13.039062 C 57.199219 14.523438 55.988281 15.773438 54.507812 15.773438 Z M 54.507812 15.773438 " fill-opacity="0.502" fill-rule="nonzero"/><path fill="#ffc1b2" d="M 66.332031 19.769531 C 66.285156 19.859375 65.867188 20.5 65.433594 20.5 L 61.601562 20.5 L 61.601562 14.984375 L 65.136719 14.984375 C 65.285156 14.984375 65.449219 15.34375 65.449219 15.34375 L 65.550781 15.34375 L 65.550781 14.40625 L 65.449219 14.40625 C 65.449219 14.40625 65.285156 14.761719 65.136719 14.761719 L 61.601562 14.761719 L 61.601562 10.425781 L 65.105469 10.425781 C 65.417969 10.425781 65.765625 11.050781 65.792969 11.109375 L 65.898438 11.109375 L 65.898438 10.199219 L 60.117188 10.199219 L 60.117188 10.425781 C 60.117188 10.425781 61.0625 10.425781 61.0625 10.78125 L 61.0625 20.140625 C 61.0625 20.410156 60.566406 20.484375 60.296875 20.5 L 60.117188 20.5 L 60.117188 20.707031 L 66.003906 20.707031 L 66.585938 19.769531 Z M 66.332031 19.769531 " fill-opacity="0.502" fill-rule="nonzero"/><path fill="#ffc1b2" d="M 68.082031 20.5 L 68.082031 20.707031 L 70.207031 20.707031 L 70.207031 20.5 C 69.683594 20.5 69.253906 20.410156 69.253906 20.140625 L 69.253906 10.722656 L 73.292969 20.632812 L 73.339844 20.632812 L 77.335938 10.648438 L 77.335938 20.140625 C 77.335938 20.410156 76.902344 20.5 76.378906 20.5 L 76.378906 20.707031 L 78.835938 20.707031 L 78.835938 20.5 C 78.3125 20.5 77.875 20.410156 77.875 20.140625 L 77.875 10.765625 C 77.875 10.511719 78.3125 10.410156 78.835938 10.410156 L 78.835938 10.199219 L 77.277344 10.199219 L 73.488281 19.695312 L 69.625 10.199219 L 68.082031 10.199219 L 68.082031 10.410156 C 68.609375 10.410156 69.027344 10.511719 69.039062 10.765625 L 69.039062 20.140625 C 69.039062 20.410156 68.609375 20.5 68.082031 20.5 Z M 68.082031 20.5 " fill-opacity="0.502" fill-rule="nonzero"/><path fill="#ffc1b2" d="M 86.546875 19.769531 C 86.5 19.859375 86.078125 20.5 85.644531 20.5 L 81.8125 20.5 L 81.8125 14.984375 L 85.347656 14.984375 C 85.496094 14.984375 85.660156 15.34375 85.660156 15.34375 L 85.761719 15.34375 L 85.761719 14.40625 L 85.660156 14.40625 C 85.660156 14.40625 85.496094 14.761719 85.347656 14.761719 L 81.8125 14.761719 L 81.8125 10.425781 L 85.316406 10.425781 C 85.628906 10.425781 85.976562 11.050781 86.003906 11.109375 L 86.109375 11.109375 L 86.109375 10.199219 L 80.328125 10.199219 L 80.328125 10.425781 C 80.328125 10.425781 81.273438 10.425781 81.273438 10.78125 L 81.273438 20.140625 C 81.273438 20.410156 80.777344 20.484375 80.507812 20.5 L 80.328125 20.5 L 80.328125 20.707031 L 86.214844 20.707031 L 86.796875 19.769531 Z M 86.546875 19.769531 " fill-opacity="0.502" fill-rule="nonzero"/><path fill="#ffc1b2" d="M 88.292969 20.484375 L 88.292969 20.707031 L 90.75 20.707031 L 90.75 20.484375 C 90.226562 20.484375 89.789062 20.394531 89.789062 20.125 L 89.789062 15.980469 L 91.839844 15.980469 C 92.46875 15.980469 93.296875 16.886719 93.492188 17.628906 C 93.832031 18.90625 93.957031 19.84375 95.074219 20.707031 L 95.945312 20.707031 L 95.945312 20.484375 C 94.808594 20.484375 94.328125 18.703125 94.105469 17.765625 C 93.832031 16.664062 93.203125 16.308594 92.441406 15.9375 C 93.925781 15.699219 95.0625 14.597656 95.0625 13.039062 C 95.0625 11.273438 93.609375 10.199219 91.828125 10.199219 L 88.292969 10.199219 L 88.292969 10.425781 C 88.816406 10.425781 89.25 10.511719 89.25 10.765625 L 89.25 20.125 C 89.25 20.394531 88.816406 20.484375 88.292969 20.484375 Z M 91.828125 15.773438 L 89.789062 15.773438 L 89.789062 10.78125 C 89.789062 10.511719 90.285156 10.4375 90.554688 10.425781 L 91.828125 10.425781 C 93.3125 10.425781 94.523438 11.570312 94.523438 13.039062 C 94.523438 14.523438 93.3125 15.773438 91.828125 15.773438 Z M 91.828125 15.773438 " fill-opacity="0.502" fill-rule="nonzero"/><path fill="#ffc1b2" d="M 97.4375 20.5 L 97.4375 20.707031 L 99.894531 20.707031 L 99.894531 20.5 C 99.417969 20.5 98.652344 20.453125 98.789062 20.140625 L 98.777344 20.140625 L 100.332031 16.160156 L 104.40625 16.160156 L 105.945312 20.140625 C 106.066406 20.4375 105.554688 20.5 105.082031 20.5 L 105.082031 20.707031 L 107.535156 20.707031 L 107.535156 20.5 C 107.101562 20.5 106.695312 20.4375 106.546875 20.1875 L 102.652344 10.214844 L 102.652344 10.199219 L 102.425781 10.199219 L 98.535156 20.15625 C 98.386719 20.46875 97.859375 20.5 97.4375 20.5 Z M 104.3125 15.953125 L 100.421875 15.953125 L 102.367188 10.960938 Z M 104.3125 15.953125 " fill-opacity="0.502" fill-rule="nonzero"/><path fill="#ffc1b2" d="M 110.511719 20.351562 C 111.558594 20.972656 112.863281 21.121094 114.015625 20.558594 C 114.957031 20.082031 115.585938 19.21875 115.585938 18.226562 C 115.585938 17.226562 114.972656 16.324219 113.925781 15.832031 L 111.332031 14.644531 C 110.601562 14.269531 109.984375 13.558594 109.984375 12.785156 L 109.984375 12.683594 C 110.03125 11.464844 111.378906 10.4375 112.5 10.4375 C 113.566406 10.484375 114.554688 11.125 115.199219 12.175781 L 115.378906 12.070312 L 115.199219 11.316406 C 115.183594 11.300781 114.703125 10.988281 114.121094 10.722656 C 114.046875 10.691406 113.972656 10.648438 113.894531 10.601562 C 113.460938 10.363281 112.980469 10.1875 112.5 10.1875 C 110.902344 10.1875 109.671875 11.167969 109.613281 12.652344 L 109.613281 12.800781 C 109.613281 13.769531 110.183594 14.65625 111.078125 15.117188 L 113.640625 16.292969 C 114.492188 16.691406 115.171875 17.40625 115.171875 18.226562 C 115.171875 19.070312 114.570312 20.007812 113.671875 20.4375 C 112.789062 20.839844 111.679688 20.738281 110.8125 20.199219 C 110.167969 19.800781 109.628906 19.175781 109.222656 18.417969 C 109.222656 18.402344 109.207031 18.402344 109.207031 18.402344 L 109.027344 18.507812 L 109.027344 18.523438 L 109.296875 19.652344 C 109.3125 19.664062 109.820312 19.992188 110.511719 20.351562 Z M 110.511719 20.351562 " fill-opacity="0.502" fill-rule="nonzero"/><path fill="#fffaef" d="M 28.398438 20.667969 L 28.398438 20.875 L 30.855469 20.875 L 30.855469 20.667969 L 30.664062 20.667969 C 30.390625 20.652344 29.894531 20.578125 29.894531 20.308594 L 29.894531 15.167969 L 33.433594 15.167969 C 33.582031 15.167969 33.75 15.523438 33.75 15.523438 L 33.851562 15.523438 L 33.851562 14.585938 L 33.75 14.585938 C 33.75 14.585938 33.582031 14.945312 33.433594 14.945312 L 29.894531 14.945312 L 29.894531 10.605469 L 33.386719 10.605469 C 33.714844 10.605469 34.046875 11.230469 34.074219 11.292969 L 34.195312 11.292969 L 34.195312 10.382812 L 28.398438 10.382812 L 28.398438 10.605469 C 28.398438 10.605469 29.359375 10.605469 29.359375 10.964844 L 29.359375 20.308594 C 29.359375 20.578125 28.867188 20.652344 28.578125 20.667969 Z M 28.398438 20.667969 " fill-opacity="1" fill-rule="nonzero"/><path fill="#fffaef" d="M 40.15625 21.066406 C 40.710938 21.066406 41.265625 20.949219 41.789062 20.695312 L 41.773438 20.695312 C 42.761719 20.28125 43.597656 19.730469 43.597656 19.730469 L 43.882812 18.570312 L 43.691406 18.484375 C 42.910156 19.953125 41.578125 20.84375 40.15625 20.84375 C 40.050781 20.84375 39.945312 20.84375 39.839844 20.832031 C 37.832031 20.546875 36.234375 18.214844 36.234375 15.675781 C 36.234375 13 37.984375 10.503906 40.15625 10.503906 C 41.488281 10.503906 42.910156 11.21875 43.539062 12.613281 L 43.734375 12.492188 L 43.722656 12.492188 L 43.492188 11.515625 C 43.492188 11.515625 42.761719 11.039062 41.921875 10.667969 L 41.953125 10.695312 C 41.382812 10.414062 40.769531 10.28125 40.15625 10.28125 C 37.683594 10.28125 35.691406 12.703125 35.691406 15.675781 C 35.691406 18.648438 37.683594 21.066406 40.15625 21.066406 Z M 40.15625 21.066406 " fill-opacity="1" fill-rule="nonzero"/><path fill="#fffaef" d="M 51.363281 20.652344 L 51.363281 20.875 L 53.820312 20.875 L 53.820312 20.652344 C 53.300781 20.652344 52.863281 20.5625 52.863281 20.292969 L 52.863281 16.148438 L 54.914062 16.148438 C 55.542969 16.148438 56.367188 17.054688 56.566406 17.796875 C 56.90625 19.074219 57.03125 20.011719 58.148438 20.875 L 59.019531 20.875 L 59.019531 20.652344 C 57.882812 20.652344 57.402344 18.867188 57.179688 17.933594 C 56.90625 16.832031 56.277344 16.472656 55.515625 16.105469 C 56.996094 15.867188 58.136719 14.765625 58.136719 13.207031 C 58.136719 11.441406 56.683594 10.367188 54.902344 10.367188 L 51.363281 10.367188 L 51.363281 10.59375 C 51.890625 10.59375 52.324219 10.679688 52.324219 10.933594 L 52.324219 20.292969 C 52.324219 20.5625 51.890625 20.652344 51.363281 20.652344 Z M 54.902344 15.941406 L 52.863281 15.941406 L 52.863281 10.949219 C 52.863281 10.679688 53.359375 10.605469 53.628906 10.59375 L 54.902344 10.59375 C 56.382812 10.59375 57.59375 11.738281 57.59375 13.207031 C 57.59375 14.691406 56.382812 15.941406 54.902344 15.941406 Z M 54.902344 15.941406 " fill-opacity="1" fill-rule="nonzero"/><path fill="#fffaef" d="M 66.730469 19.9375 C 66.683594 20.027344 66.261719 20.667969 65.832031 20.667969 L 62 20.667969 L 62 15.152344 L 65.53125 15.152344 C 65.683594 15.152344 65.847656 15.511719 65.847656 15.511719 L 65.949219 15.511719 L 65.949219 14.574219 L 65.847656 14.574219 C 65.847656 14.574219 65.683594 14.929688 65.53125 14.929688 L 62 14.929688 L 62 10.59375 L 65.5 10.59375 C 65.816406 10.59375 66.160156 11.21875 66.1875 11.277344 L 66.296875 11.277344 L 66.296875 10.367188 L 60.511719 10.367188 L 60.511719 10.59375 C 60.511719 10.59375 61.460938 10.59375 61.460938 10.949219 L 61.460938 20.308594 C 61.460938 20.578125 60.964844 20.652344 60.695312 20.667969 L 60.511719 20.667969 L 60.511719 20.875 L 66.402344 20.875 L 66.984375 19.9375 Z M 66.730469 19.9375 " fill-opacity="1" fill-rule="nonzero"/><path fill="#fffaef" d="M 68.476562 20.667969 L 68.476562 20.875 L 70.605469 20.875 L 70.605469 20.667969 C 70.082031 20.667969 69.648438 20.578125 69.648438 20.308594 L 69.648438 10.890625 L 73.691406 20.800781 L 73.738281 20.800781 L 77.734375 10.816406 L 77.734375 20.308594 C 77.734375 20.578125 77.296875 20.667969 76.773438 20.667969 L 76.773438 20.875 L 79.230469 20.875 L 79.230469 20.667969 C 78.710938 20.667969 78.273438 20.578125 78.273438 20.308594 L 78.273438 10.933594 C 78.273438 10.679688 78.710938 10.578125 79.230469 10.578125 L 79.230469 10.367188 L 77.675781 10.367188 L 73.886719 19.863281 L 70.023438 10.367188 L 68.476562 10.367188 L 68.476562 10.578125 C 69.003906 10.578125 69.425781 10.679688 69.4375 10.933594 L 69.4375 20.308594 C 69.4375 20.578125 69.003906 20.667969 68.476562 20.667969 Z M 68.476562 20.667969 " fill-opacity="1" fill-rule="nonzero"/><path fill="#fffaef" d="M 86.941406 19.9375 C 86.894531 20.027344 86.472656 20.667969 86.042969 20.667969 L 82.210938 20.667969 L 82.210938 15.152344 L 85.742188 15.152344 C 85.890625 15.152344 86.058594 15.511719 86.058594 15.511719 L 86.160156 15.511719 L 86.160156 14.574219 L 86.058594 14.574219 C 86.058594 14.574219 85.890625 14.929688 85.742188 14.929688 L 82.210938 14.929688 L 82.210938 10.59375 L 85.710938 10.59375 C 86.027344 10.59375 86.371094 11.21875 86.398438 11.277344 L 86.503906 11.277344 L 86.503906 10.367188 L 80.722656 10.367188 L 80.722656 10.59375 C 80.722656 10.59375 81.671875 10.59375 81.671875 10.949219 L 81.671875 20.308594 C 81.671875 20.578125 81.175781 20.652344 80.90625 20.667969 L 80.722656 20.667969 L 80.722656 20.875 L 86.613281 20.875 L 87.195312 19.9375 Z M 86.941406 19.9375 " fill-opacity="1" fill-rule="nonzero"/><path fill="#fffaef" d="M 88.6875 20.652344 L 88.6875 20.875 L 91.144531 20.875 L 91.144531 20.652344 C 90.621094 20.652344 90.1875 20.5625 90.1875 20.292969 L 90.1875 16.148438 L 92.238281 16.148438 C 92.867188 16.148438 93.691406 17.054688 93.886719 17.796875 C 94.230469 19.074219 94.351562 20.011719 95.472656 20.875 L 96.339844 20.875 L 96.339844 20.652344 C 95.203125 20.652344 94.726562 18.867188 94.5 17.933594 C 94.230469 16.832031 93.601562 16.472656 92.839844 16.105469 C 94.320312 15.867188 95.460938 14.765625 95.460938 13.207031 C 95.460938 11.441406 94.007812 10.367188 92.226562 10.367188 L 88.6875 10.367188 L 88.6875 10.59375 C 89.214844 10.59375 89.648438 10.679688 89.648438 10.933594 L 89.648438 20.292969 C 89.648438 20.5625 89.214844 20.652344 88.6875 20.652344 Z M 92.226562 15.941406 L 90.1875 15.941406 L 90.1875 10.949219 C 90.1875 10.679688 90.679688 10.605469 90.953125 10.59375 L 92.226562 10.59375 C 93.707031 10.59375 94.917969 11.738281 94.917969 13.207031 C 94.917969 14.691406 93.707031 15.941406 92.226562 15.941406 Z M 92.226562 15.941406 " fill-opacity="1" fill-rule="nonzero"/><path fill="#fffaef" d="M 97.835938 20.667969 L 97.835938 20.875 L 100.292969 20.875 L 100.292969 20.667969 C 99.8125 20.667969 99.050781 20.621094 99.183594 20.308594 L 99.171875 20.308594 L 100.730469 16.328125 L 104.800781 16.328125 L 106.34375 20.308594 C 106.464844 20.605469 105.953125 20.667969 105.476562 20.667969 L 105.476562 20.875 L 107.929688 20.875 L 107.929688 20.667969 C 107.496094 20.667969 107.09375 20.605469 106.941406 20.355469 L 103.046875 10.382812 L 103.046875 10.367188 L 102.824219 10.367188 L 98.933594 20.324219 C 98.78125 20.636719 98.257812 20.667969 97.835938 20.667969 Z M 104.710938 16.121094 L 100.820312 16.121094 L 102.765625 11.128906 Z M 104.710938 16.121094 " fill-opacity="1" fill-rule="nonzero"/><path fill="#fffaef" d="M 110.910156 20.519531 C 111.953125 21.140625 113.257812 21.289062 114.410156 20.726562 C 115.355469 20.25 115.984375 19.386719 115.984375 18.394531 C 115.984375 17.394531 115.371094 16.488281 114.320312 16 L 111.730469 14.8125 C 111 14.4375 110.382812 13.726562 110.382812 12.953125 L 110.382812 12.851562 C 110.429688 11.632812 111.777344 10.605469 112.898438 10.605469 C 113.960938 10.652344 114.949219 11.292969 115.59375 12.34375 L 115.773438 12.238281 L 115.59375 11.484375 C 115.578125 11.46875 115.097656 11.15625 114.515625 10.890625 C 114.441406 10.859375 114.367188 10.816406 114.292969 10.769531 C 113.855469 10.53125 113.378906 10.355469 112.898438 10.355469 C 111.296875 10.355469 110.066406 11.335938 110.007812 12.820312 L 110.007812 12.96875 C 110.007812 13.9375 110.578125 14.824219 111.476562 15.285156 L 114.039062 16.460938 C 114.890625 16.859375 115.566406 17.574219 115.566406 18.394531 C 115.566406 19.238281 114.964844 20.175781 114.070312 20.605469 C 113.183594 21.003906 112.074219 20.90625 111.207031 20.367188 C 110.5625 19.96875 110.023438 19.34375 109.621094 18.585938 C 109.621094 18.570312 109.605469 18.570312 109.605469 18.570312 L 109.421875 18.675781 L 109.421875 18.691406 L 109.695312 19.820312 C 109.710938 19.832031 110.21875 20.160156 110.910156 20.519531 Z M 110.910156 20.519531 " fill-opacity="1" fill-rule="nonzero"/></svg>